<mxfile host="app.diagrams.net" modified="2022-02-20T10:07:34.277Z" agent="5.0 (Macintosh; Intel Mac OS X 10_15_7) AppleWebKit/605.1.15 (KHTML, like Gecko) Version/15.1 Safari/605.1.15" etag="Cf8A9sE9XI38TtfUFDoT" version="16.5.6" type="github">
  <diagram name="Curry" id="BgHRdOvf98H4T3BhOxgY">
    <mxGraphModel dx="2355" dy="1970" grid="0" gridSize="10" guides="1" tooltips="1" connect="1" arrows="1" fold="1" page="1" pageScale="1" pageWidth="1169" pageHeight="827" background="#ffffff" math="0" shadow="0">
      <root>
        <mxCell id="OF-NH1eZ6VVbjprf6gx7-0" />
        <mxCell id="OF-NH1eZ6VVbjprf6gx7-1" parent="OF-NH1eZ6VVbjprf6gx7-0" />
        <mxCell id="-PEEaS-bJTtw68YUoyjQ-0" style="edgeStyle=orthogonalEdgeStyle;rounded=0;orthogonalLoop=1;jettySize=auto;html=1;exitX=1;exitY=0.5;exitDx=0;exitDy=0;entryX=0;entryY=0.5;entryDx=0;entryDy=0;endArrow=block;endFill=0;" edge="1" parent="OF-NH1eZ6VVbjprf6gx7-1" source="OF-NH1eZ6VVbjprf6gx7-4" target="jKZceMIJVeRp5XZxTa_9-0">
          <mxGeometry relative="1" as="geometry" />
        </mxCell>
        <mxCell id="OF-NH1eZ6VVbjprf6gx7-4" value="ウェイター" style="rounded=0;whiteSpace=wrap;html=1;" parent="OF-NH1eZ6VVbjprf6gx7-1" vertex="1">
          <mxGeometry x="-520" y="30" width="120" height="60" as="geometry" />
        </mxCell>
        <mxCell id="OF-NH1eZ6VVbjprf6gx7-5" value="伝票データ&lt;br&gt;(Input Data)" style="rounded=0;whiteSpace=wrap;html=1;" parent="OF-NH1eZ6VVbjprf6gx7-1" vertex="1">
          <mxGeometry x="40" y="110" width="120" height="60" as="geometry" />
        </mxCell>
        <mxCell id="OF-NH1eZ6VVbjprf6gx7-7" value="伝票データ&lt;br&gt;表示画面&lt;br&gt;(Input Boundary)" style="rounded=0;whiteSpace=wrap;html=1;" parent="OF-NH1eZ6VVbjprf6gx7-1" vertex="1">
          <mxGeometry x="40" y="30" width="120" height="60" as="geometry" />
        </mxCell>
        <mxCell id="-PEEaS-bJTtw68YUoyjQ-4" style="edgeStyle=orthogonalEdgeStyle;rounded=0;orthogonalLoop=1;jettySize=auto;html=1;entryX=1;entryY=0.5;entryDx=0;entryDy=0;endArrow=block;endFill=0;" edge="1" parent="OF-NH1eZ6VVbjprf6gx7-1" target="OF-NH1eZ6VVbjprf6gx7-7">
          <mxGeometry relative="1" as="geometry">
            <mxPoint x="200" y="60" as="sourcePoint" />
            <Array as="points" />
          </mxGeometry>
        </mxCell>
        <mxCell id="-PEEaS-bJTtw68YUoyjQ-5" style="edgeStyle=orthogonalEdgeStyle;rounded=0;orthogonalLoop=1;jettySize=auto;html=1;entryX=1;entryY=0.5;entryDx=0;entryDy=0;endArrow=classic;endFill=1;" edge="1" parent="OF-NH1eZ6VVbjprf6gx7-1" target="OF-NH1eZ6VVbjprf6gx7-5">
          <mxGeometry relative="1" as="geometry">
            <mxPoint x="200" y="140" as="sourcePoint" />
          </mxGeometry>
        </mxCell>
        <mxCell id="-PEEaS-bJTtw68YUoyjQ-17" style="edgeStyle=orthogonalEdgeStyle;rounded=0;orthogonalLoop=1;jettySize=auto;html=1;entryX=1;entryY=0.5;entryDx=0;entryDy=0;endArrow=classic;endFill=1;exitX=0.007;exitY=0.634;exitDx=0;exitDy=0;exitPerimeter=0;" edge="1" parent="OF-NH1eZ6VVbjprf6gx7-1" source="OF-NH1eZ6VVbjprf6gx7-13" target="OF-NH1eZ6VVbjprf6gx7-18">
          <mxGeometry relative="1" as="geometry">
            <Array as="points" />
          </mxGeometry>
        </mxCell>
        <mxCell id="-PEEaS-bJTtw68YUoyjQ-18" style="edgeStyle=orthogonalEdgeStyle;rounded=0;orthogonalLoop=1;jettySize=auto;html=1;exitX=0.091;exitY=0.9;exitDx=0;exitDy=0;entryX=1;entryY=0.5;entryDx=0;entryDy=0;endArrow=classic;endFill=1;exitPerimeter=0;" edge="1" parent="OF-NH1eZ6VVbjprf6gx7-1" source="OF-NH1eZ6VVbjprf6gx7-13" target="OF-NH1eZ6VVbjprf6gx7-17">
          <mxGeometry relative="1" as="geometry" />
        </mxCell>
        <mxCell id="-PEEaS-bJTtw68YUoyjQ-23" style="edgeStyle=orthogonalEdgeStyle;rounded=0;orthogonalLoop=1;jettySize=auto;html=1;exitX=1;exitY=0.5;exitDx=0;exitDy=0;entryX=0;entryY=0.5;entryDx=0;entryDy=0;endArrow=classic;endFill=1;" edge="1" parent="OF-NH1eZ6VVbjprf6gx7-1" source="OF-NH1eZ6VVbjprf6gx7-13" target="-PEEaS-bJTtw68YUoyjQ-21">
          <mxGeometry relative="1" as="geometry" />
        </mxCell>
        <mxCell id="-PEEaS-bJTtw68YUoyjQ-39" style="edgeStyle=orthogonalEdgeStyle;rounded=0;orthogonalLoop=1;jettySize=auto;html=1;exitX=0.5;exitY=0;exitDx=0;exitDy=0;entryX=0.5;entryY=1;entryDx=0;entryDy=0;endArrow=classic;endFill=1;" edge="1" parent="OF-NH1eZ6VVbjprf6gx7-1" source="OF-NH1eZ6VVbjprf6gx7-13" target="OF-NH1eZ6VVbjprf6gx7-14">
          <mxGeometry relative="1" as="geometry" />
        </mxCell>
        <mxCell id="OF-NH1eZ6VVbjprf6gx7-13" value="料理人&lt;br&gt;(Interactor)" style="rounded=0;whiteSpace=wrap;html=1;" parent="OF-NH1eZ6VVbjprf6gx7-1" vertex="1">
          <mxGeometry x="200" y="30" width="120" height="300" as="geometry" />
        </mxCell>
        <mxCell id="OF-NH1eZ6VVbjprf6gx7-14" value="カリー&lt;br&gt;(Entities)" style="rounded=0;whiteSpace=wrap;html=1;" parent="OF-NH1eZ6VVbjprf6gx7-1" vertex="1">
          <mxGeometry x="200" y="-100" width="120" height="60" as="geometry" />
        </mxCell>
        <mxCell id="OF-NH1eZ6VVbjprf6gx7-16" value="トマト屋さん&lt;br&gt;(Data Access Interface)" style="rounded=0;whiteSpace=wrap;html=1;" parent="OF-NH1eZ6VVbjprf6gx7-1" vertex="1">
          <mxGeometry x="720" y="110" width="120" height="60" as="geometry" />
        </mxCell>
        <mxCell id="OF-NH1eZ6VVbjprf6gx7-17" value="出来上がったカリー&lt;br&gt;(Output Data)" style="rounded=0;whiteSpace=wrap;html=1;" parent="OF-NH1eZ6VVbjprf6gx7-1" vertex="1">
          <mxGeometry x="40" y="270" width="120" height="60" as="geometry" />
        </mxCell>
        <mxCell id="OF-NH1eZ6VVbjprf6gx7-18" value="ウェイター&lt;br&gt;(Output Boundary)" style="rounded=0;whiteSpace=wrap;html=1;" parent="OF-NH1eZ6VVbjprf6gx7-1" vertex="1">
          <mxGeometry x="40" y="190" width="120" height="60" as="geometry" />
        </mxCell>
        <mxCell id="OF-NH1eZ6VVbjprf6gx7-24" style="edgeStyle=orthogonalEdgeStyle;rounded=0;orthogonalLoop=1;jettySize=auto;html=1;exitX=0;exitY=0.5;exitDx=0;exitDy=0;entryX=1;entryY=0.5;entryDx=0;entryDy=0;startArrow=none;startFill=0;endArrow=block;endFill=0;" parent="OF-NH1eZ6VVbjprf6gx7-1" source="OF-NH1eZ6VVbjprf6gx7-26" target="OF-NH1eZ6VVbjprf6gx7-16" edge="1">
          <mxGeometry relative="1" as="geometry" />
        </mxCell>
        <mxCell id="OF-NH1eZ6VVbjprf6gx7-25" style="edgeStyle=orthogonalEdgeStyle;rounded=0;orthogonalLoop=1;jettySize=auto;html=1;exitX=1;exitY=0.5;exitDx=0;exitDy=0;entryX=0;entryY=0.5;entryDx=0;entryDy=0;startArrow=none;startFill=0;endArrow=classic;endFill=1;" parent="OF-NH1eZ6VVbjprf6gx7-1" source="OF-NH1eZ6VVbjprf6gx7-26" target="OF-NH1eZ6VVbjprf6gx7-27" edge="1">
          <mxGeometry relative="1" as="geometry" />
        </mxCell>
        <mxCell id="OF-NH1eZ6VVbjprf6gx7-26" value="熊本のJA&lt;br&gt;(Data Access)" style="rounded=0;whiteSpace=wrap;html=1;" parent="OF-NH1eZ6VVbjprf6gx7-1" vertex="1">
          <mxGeometry x="930" y="110" width="120" height="60" as="geometry" />
        </mxCell>
        <mxCell id="OF-NH1eZ6VVbjprf6gx7-27" value="熊本のトマト農家&lt;br&gt;(Database)" style="rounded=0;whiteSpace=wrap;html=1;" parent="OF-NH1eZ6VVbjprf6gx7-1" vertex="1">
          <mxGeometry x="1130" y="110" width="120" height="60" as="geometry" />
        </mxCell>
        <mxCell id="-PEEaS-bJTtw68YUoyjQ-7" style="edgeStyle=orthogonalEdgeStyle;rounded=0;orthogonalLoop=1;jettySize=auto;html=1;entryX=0;entryY=0.5;entryDx=0;entryDy=0;endArrow=classic;endFill=1;exitX=0.917;exitY=0.214;exitDx=0;exitDy=0;exitPerimeter=0;" edge="1" parent="OF-NH1eZ6VVbjprf6gx7-1" source="OF-NH1eZ6VVbjprf6gx7-29" target="rrInOrg9L_3WQvXrLkjE-4">
          <mxGeometry relative="1" as="geometry">
            <mxPoint x="-360" y="220" as="sourcePoint" />
          </mxGeometry>
        </mxCell>
        <mxCell id="-PEEaS-bJTtw68YUoyjQ-13" style="edgeStyle=orthogonalEdgeStyle;rounded=0;orthogonalLoop=1;jettySize=auto;html=1;entryX=0;entryY=0.5;entryDx=0;entryDy=0;endArrow=classic;endFill=1;" edge="1" parent="OF-NH1eZ6VVbjprf6gx7-1" target="-PEEaS-bJTtw68YUoyjQ-11">
          <mxGeometry relative="1" as="geometry">
            <mxPoint x="-400" y="300" as="sourcePoint" />
          </mxGeometry>
        </mxCell>
        <mxCell id="OF-NH1eZ6VVbjprf6gx7-29" value="カリーという商品&lt;br&gt;(View)" style="rounded=0;whiteSpace=wrap;html=1;" parent="OF-NH1eZ6VVbjprf6gx7-1" vertex="1">
          <mxGeometry x="-520" y="190" width="120" height="140" as="geometry" />
        </mxCell>
        <mxCell id="OF-NH1eZ6VVbjprf6gx7-32" value="" style="endArrow=none;html=1;rounded=0;shape=link;strokeColor=#8A8A8A;" parent="OF-NH1eZ6VVbjprf6gx7-1" edge="1">
          <mxGeometry width="50" height="50" relative="1" as="geometry">
            <mxPoint x="860" y="400" as="sourcePoint" />
            <mxPoint x="-360" y="400" as="targetPoint" />
          </mxGeometry>
        </mxCell>
        <mxCell id="OF-NH1eZ6VVbjprf6gx7-33" value="" style="endArrow=none;html=1;rounded=0;shape=link;strokeColor=#B5B5B5;" parent="OF-NH1eZ6VVbjprf6gx7-1" edge="1">
          <mxGeometry width="50" height="50" relative="1" as="geometry">
            <mxPoint y="360" as="sourcePoint" />
            <mxPoint x="520" y="360" as="targetPoint" />
          </mxGeometry>
        </mxCell>
        <mxCell id="OF-NH1eZ6VVbjprf6gx7-34" value="UseCases" style="text;html=1;strokeColor=#b85450;fillColor=#f8cecc;align=center;verticalAlign=middle;whiteSpace=wrap;rounded=0;" parent="OF-NH1eZ6VVbjprf6gx7-1" vertex="1">
          <mxGeometry x="440" y="10" width="60" height="30" as="geometry" />
        </mxCell>
        <mxCell id="OF-NH1eZ6VVbjprf6gx7-35" value="Adapters" style="text;html=1;strokeColor=#82b366;fillColor=#d5e8d4;align=center;verticalAlign=middle;whiteSpace=wrap;rounded=0;" parent="OF-NH1eZ6VVbjprf6gx7-1" vertex="1">
          <mxGeometry x="780" y="10" width="60" height="30" as="geometry" />
        </mxCell>
        <mxCell id="OF-NH1eZ6VVbjprf6gx7-36" value="Entities" style="text;html=1;strokeColor=#d6b656;fillColor=#fff2cc;align=center;verticalAlign=middle;whiteSpace=wrap;rounded=0;" parent="OF-NH1eZ6VVbjprf6gx7-1" vertex="1">
          <mxGeometry x="130" y="-120" width="60" height="30" as="geometry" />
        </mxCell>
        <mxCell id="OF-NH1eZ6VVbjprf6gx7-37" value="Frameworks&lt;br&gt;Drivers" style="text;html=1;strokeColor=#6c8ebf;fillColor=#dae8fc;align=center;verticalAlign=middle;whiteSpace=wrap;rounded=0;" parent="OF-NH1eZ6VVbjprf6gx7-1" vertex="1">
          <mxGeometry x="1180" y="10" width="80" height="30" as="geometry" />
        </mxCell>
        <mxCell id="-9AKa4olxY8CdK55FLYG-0" value="" style="endArrow=none;html=1;rounded=0;shape=link;strokeColor=#B5B5B5;" parent="OF-NH1eZ6VVbjprf6gx7-1" edge="1">
          <mxGeometry width="50" height="50" relative="1" as="geometry">
            <mxPoint as="sourcePoint" />
            <mxPoint y="360" as="targetPoint" />
          </mxGeometry>
        </mxCell>
        <mxCell id="-PEEaS-bJTtw68YUoyjQ-25" style="edgeStyle=orthogonalEdgeStyle;rounded=0;orthogonalLoop=1;jettySize=auto;html=1;exitX=0;exitY=0.5;exitDx=0;exitDy=0;entryX=1;entryY=0.5;entryDx=0;entryDy=0;endArrow=block;endFill=0;" edge="1" parent="OF-NH1eZ6VVbjprf6gx7-1" source="-9AKa4olxY8CdK55FLYG-1" target="-PEEaS-bJTtw68YUoyjQ-21">
          <mxGeometry relative="1" as="geometry">
            <Array as="points">
              <mxPoint x="540" y="140" />
              <mxPoint x="540" y="180" />
            </Array>
          </mxGeometry>
        </mxCell>
        <mxCell id="-PEEaS-bJTtw68YUoyjQ-26" style="edgeStyle=orthogonalEdgeStyle;rounded=0;orthogonalLoop=1;jettySize=auto;html=1;exitX=1;exitY=0.5;exitDx=0;exitDy=0;entryX=0;entryY=0.5;entryDx=0;entryDy=0;endArrow=classic;endFill=1;" edge="1" parent="OF-NH1eZ6VVbjprf6gx7-1" source="-9AKa4olxY8CdK55FLYG-1" target="OF-NH1eZ6VVbjprf6gx7-16">
          <mxGeometry relative="1" as="geometry" />
        </mxCell>
        <mxCell id="-PEEaS-bJTtw68YUoyjQ-40" style="edgeStyle=orthogonalEdgeStyle;rounded=0;orthogonalLoop=1;jettySize=auto;html=1;exitX=0.5;exitY=0;exitDx=0;exitDy=0;entryX=1;entryY=0.5;entryDx=0;entryDy=0;endArrow=classic;endFill=1;" edge="1" parent="OF-NH1eZ6VVbjprf6gx7-1" source="-9AKa4olxY8CdK55FLYG-1" target="OF-NH1eZ6VVbjprf6gx7-14">
          <mxGeometry relative="1" as="geometry" />
        </mxCell>
        <mxCell id="-9AKa4olxY8CdK55FLYG-1" value="トマト切りし者&lt;br&gt;(Gateway)" style="rounded=0;whiteSpace=wrap;html=1;" parent="OF-NH1eZ6VVbjprf6gx7-1" vertex="1">
          <mxGeometry x="560" y="110" width="120" height="60" as="geometry" />
        </mxCell>
        <mxCell id="-PEEaS-bJTtw68YUoyjQ-2" style="edgeStyle=orthogonalEdgeStyle;rounded=0;orthogonalLoop=1;jettySize=auto;html=1;exitX=1;exitY=0.5;exitDx=0;exitDy=0;entryX=0;entryY=0.5;entryDx=0;entryDy=0;endArrow=classic;endFill=1;" edge="1" parent="OF-NH1eZ6VVbjprf6gx7-1" source="jKZceMIJVeRp5XZxTa_9-0" target="OF-NH1eZ6VVbjprf6gx7-7">
          <mxGeometry relative="1" as="geometry" />
        </mxCell>
        <mxCell id="-PEEaS-bJTtw68YUoyjQ-3" style="edgeStyle=orthogonalEdgeStyle;rounded=0;orthogonalLoop=1;jettySize=auto;html=1;exitX=1;exitY=0.5;exitDx=0;exitDy=0;entryX=0;entryY=0.5;entryDx=0;entryDy=0;endArrow=classic;endFill=1;" edge="1" parent="OF-NH1eZ6VVbjprf6gx7-1" source="jKZceMIJVeRp5XZxTa_9-0" target="OF-NH1eZ6VVbjprf6gx7-5">
          <mxGeometry relative="1" as="geometry">
            <Array as="points">
              <mxPoint x="-20" y="60" />
              <mxPoint x="-20" y="140" />
            </Array>
          </mxGeometry>
        </mxCell>
        <mxCell id="jKZceMIJVeRp5XZxTa_9-0" value="注文を受けるもの&lt;br&gt;(Controller)" style="rounded=0;whiteSpace=wrap;html=1;" parent="OF-NH1eZ6VVbjprf6gx7-1" vertex="1">
          <mxGeometry x="-160" y="30" width="120" height="60" as="geometry" />
        </mxCell>
        <mxCell id="-PEEaS-bJTtw68YUoyjQ-9" style="edgeStyle=orthogonalEdgeStyle;rounded=0;orthogonalLoop=1;jettySize=auto;html=1;exitX=0;exitY=0.5;exitDx=0;exitDy=0;entryX=1;entryY=0.5;entryDx=0;entryDy=0;endArrow=classic;endFill=1;" edge="1" parent="OF-NH1eZ6VVbjprf6gx7-1" source="rrInOrg9L_3WQvXrLkjE-0" target="rrInOrg9L_3WQvXrLkjE-4">
          <mxGeometry relative="1" as="geometry" />
        </mxCell>
        <mxCell id="-PEEaS-bJTtw68YUoyjQ-15" style="edgeStyle=orthogonalEdgeStyle;rounded=0;orthogonalLoop=1;jettySize=auto;html=1;exitX=1;exitY=0.5;exitDx=0;exitDy=0;entryX=0;entryY=0.5;entryDx=0;entryDy=0;endArrow=block;endFill=0;" edge="1" parent="OF-NH1eZ6VVbjprf6gx7-1" source="rrInOrg9L_3WQvXrLkjE-0" target="OF-NH1eZ6VVbjprf6gx7-18">
          <mxGeometry relative="1" as="geometry" />
        </mxCell>
        <mxCell id="-PEEaS-bJTtw68YUoyjQ-20" style="edgeStyle=orthogonalEdgeStyle;rounded=0;orthogonalLoop=1;jettySize=auto;html=1;exitX=1;exitY=0.5;exitDx=0;exitDy=0;entryX=0;entryY=0.5;entryDx=0;entryDy=0;endArrow=classic;endFill=1;" edge="1" parent="OF-NH1eZ6VVbjprf6gx7-1" source="rrInOrg9L_3WQvXrLkjE-0" target="OF-NH1eZ6VVbjprf6gx7-17">
          <mxGeometry relative="1" as="geometry">
            <Array as="points">
              <mxPoint x="-20" y="220" />
              <mxPoint x="-20" y="300" />
            </Array>
          </mxGeometry>
        </mxCell>
        <mxCell id="rrInOrg9L_3WQvXrLkjE-0" value="テイクアウト係&lt;br&gt;(Presenter)" style="rounded=0;whiteSpace=wrap;html=1;" parent="OF-NH1eZ6VVbjprf6gx7-1" vertex="1">
          <mxGeometry x="-160" y="190" width="120" height="60" as="geometry" />
        </mxCell>
        <mxCell id="rrInOrg9L_3WQvXrLkjE-4" value="ビニール袋&lt;br&gt;(View Model)" style="rounded=0;whiteSpace=wrap;html=1;" parent="OF-NH1eZ6VVbjprf6gx7-1" vertex="1">
          <mxGeometry x="-320" y="190" width="120" height="60" as="geometry" />
        </mxCell>
        <mxCell id="b59KhlLlg1IPWTAJf_tu-0" value="" style="endArrow=none;html=1;rounded=0;shape=link;strokeColor=#8A8A8A;" parent="OF-NH1eZ6VVbjprf6gx7-1" edge="1">
          <mxGeometry width="50" height="50" relative="1" as="geometry">
            <mxPoint x="-360" as="sourcePoint" />
            <mxPoint x="-360" y="400" as="targetPoint" />
          </mxGeometry>
        </mxCell>
        <mxCell id="b59KhlLlg1IPWTAJf_tu-3" style="edgeStyle=orthogonalEdgeStyle;rounded=0;orthogonalLoop=1;jettySize=auto;html=1;exitX=0.996;exitY=0.101;exitDx=0;exitDy=0;exitPerimeter=0;" parent="OF-NH1eZ6VVbjprf6gx7-1" source="b59KhlLlg1IPWTAJf_tu-2" target="OF-NH1eZ6VVbjprf6gx7-4" edge="1">
          <mxGeometry relative="1" as="geometry">
            <mxPoint x="-570" y="60" as="sourcePoint" />
          </mxGeometry>
        </mxCell>
        <mxCell id="-PEEaS-bJTtw68YUoyjQ-14" style="edgeStyle=orthogonalEdgeStyle;rounded=0;orthogonalLoop=1;jettySize=auto;html=1;endArrow=classic;endFill=1;entryX=-0.012;entryY=0.451;entryDx=0;entryDy=0;entryPerimeter=0;exitX=0.875;exitY=0.744;exitDx=0;exitDy=0;exitPerimeter=0;" edge="1" parent="OF-NH1eZ6VVbjprf6gx7-1" source="b59KhlLlg1IPWTAJf_tu-2" target="OF-NH1eZ6VVbjprf6gx7-29">
          <mxGeometry relative="1" as="geometry">
            <mxPoint x="-520" y="270" as="targetPoint" />
            <Array as="points" />
          </mxGeometry>
        </mxCell>
        <mxCell id="b59KhlLlg1IPWTAJf_tu-2" value="客&lt;br&gt;(ユーザー)" style="rounded=0;whiteSpace=wrap;html=1;" parent="OF-NH1eZ6VVbjprf6gx7-1" vertex="1">
          <mxGeometry x="-680" y="30" width="80" height="300" as="geometry" />
        </mxCell>
        <mxCell id="-PEEaS-bJTtw68YUoyjQ-12" style="edgeStyle=orthogonalEdgeStyle;rounded=0;orthogonalLoop=1;jettySize=auto;html=1;exitX=0;exitY=0.5;exitDx=0;exitDy=0;entryX=1;entryY=0.5;entryDx=0;entryDy=0;endArrow=classic;endFill=1;" edge="1" parent="OF-NH1eZ6VVbjprf6gx7-1" source="-PEEaS-bJTtw68YUoyjQ-10" target="-PEEaS-bJTtw68YUoyjQ-11">
          <mxGeometry relative="1" as="geometry" />
        </mxCell>
        <mxCell id="-PEEaS-bJTtw68YUoyjQ-16" style="edgeStyle=orthogonalEdgeStyle;rounded=0;orthogonalLoop=1;jettySize=auto;html=1;exitX=1;exitY=0.5;exitDx=0;exitDy=0;endArrow=block;endFill=0;entryX=0;entryY=0.5;entryDx=0;entryDy=0;" edge="1" parent="OF-NH1eZ6VVbjprf6gx7-1" source="-PEEaS-bJTtw68YUoyjQ-10" target="OF-NH1eZ6VVbjprf6gx7-18">
          <mxGeometry relative="1" as="geometry">
            <mxPoint y="300.17647058823536" as="targetPoint" />
            <Array as="points">
              <mxPoint x="-20" y="300" />
              <mxPoint x="-20" y="220" />
            </Array>
          </mxGeometry>
        </mxCell>
        <mxCell id="-PEEaS-bJTtw68YUoyjQ-19" style="edgeStyle=orthogonalEdgeStyle;rounded=0;orthogonalLoop=1;jettySize=auto;html=1;exitX=1;exitY=0.5;exitDx=0;exitDy=0;entryX=0;entryY=0.5;entryDx=0;entryDy=0;endArrow=classic;endFill=1;" edge="1" parent="OF-NH1eZ6VVbjprf6gx7-1" source="-PEEaS-bJTtw68YUoyjQ-10" target="OF-NH1eZ6VVbjprf6gx7-17">
          <mxGeometry relative="1" as="geometry" />
        </mxCell>
        <mxCell id="-PEEaS-bJTtw68YUoyjQ-10" value="イートイン係&lt;br&gt;(Presenter)" style="rounded=0;whiteSpace=wrap;html=1;" vertex="1" parent="OF-NH1eZ6VVbjprf6gx7-1">
          <mxGeometry x="-160" y="270" width="120" height="60" as="geometry" />
        </mxCell>
        <mxCell id="-PEEaS-bJTtw68YUoyjQ-11" value="お盆&lt;br&gt;(View Model)" style="rounded=0;whiteSpace=wrap;html=1;" vertex="1" parent="OF-NH1eZ6VVbjprf6gx7-1">
          <mxGeometry x="-320" y="270" width="120" height="60" as="geometry" />
        </mxCell>
        <mxCell id="-PEEaS-bJTtw68YUoyjQ-21" value="食材加工担当" style="rounded=0;whiteSpace=wrap;html=1;" vertex="1" parent="OF-NH1eZ6VVbjprf6gx7-1">
          <mxGeometry x="360" y="150" width="120" height="60" as="geometry" />
        </mxCell>
        <mxCell id="-PEEaS-bJTtw68YUoyjQ-30" style="edgeStyle=orthogonalEdgeStyle;rounded=0;orthogonalLoop=1;jettySize=auto;html=1;exitX=1;exitY=0.5;exitDx=0;exitDy=0;entryX=0;entryY=0.5;entryDx=0;entryDy=0;endArrow=classic;endFill=1;" edge="1" parent="OF-NH1eZ6VVbjprf6gx7-1" source="-PEEaS-bJTtw68YUoyjQ-27" target="-PEEaS-bJTtw68YUoyjQ-29">
          <mxGeometry relative="1" as="geometry" />
        </mxCell>
        <mxCell id="-PEEaS-bJTtw68YUoyjQ-36" style="edgeStyle=orthogonalEdgeStyle;rounded=0;orthogonalLoop=1;jettySize=auto;html=1;exitX=0;exitY=0.5;exitDx=0;exitDy=0;entryX=1;entryY=0.5;entryDx=0;entryDy=0;endArrow=block;endFill=0;shadow=0;sketch=0;jumpStyle=none;" edge="1" parent="OF-NH1eZ6VVbjprf6gx7-1" source="-PEEaS-bJTtw68YUoyjQ-27" target="-PEEaS-bJTtw68YUoyjQ-21">
          <mxGeometry relative="1" as="geometry">
            <Array as="points">
              <mxPoint x="540" y="220" />
              <mxPoint x="540" y="180" />
            </Array>
          </mxGeometry>
        </mxCell>
        <mxCell id="-PEEaS-bJTtw68YUoyjQ-46" style="edgeStyle=orthogonalEdgeStyle;rounded=0;orthogonalLoop=1;jettySize=auto;html=1;exitX=0.5;exitY=1;exitDx=0;exitDy=0;entryX=1;entryY=0.5;entryDx=0;entryDy=0;endArrow=classic;endFill=1;jumpStyle=arc;" edge="1" parent="OF-NH1eZ6VVbjprf6gx7-1" source="-PEEaS-bJTtw68YUoyjQ-27" target="OF-NH1eZ6VVbjprf6gx7-14">
          <mxGeometry relative="1" as="geometry">
            <Array as="points">
              <mxPoint x="620" y="270" />
              <mxPoint x="530" y="270" />
              <mxPoint x="530" y="-70" />
            </Array>
          </mxGeometry>
        </mxCell>
        <mxCell id="-PEEaS-bJTtw68YUoyjQ-27" value="スパイス調合せし者&lt;br&gt;(Gateway)" style="rounded=0;whiteSpace=wrap;html=1;" vertex="1" parent="OF-NH1eZ6VVbjprf6gx7-1">
          <mxGeometry x="560" y="190" width="120" height="60" as="geometry" />
        </mxCell>
        <mxCell id="-PEEaS-bJTtw68YUoyjQ-29" value="スパイス屋さん&lt;br&gt;(Data Access Interface)" style="rounded=0;whiteSpace=wrap;html=1;" vertex="1" parent="OF-NH1eZ6VVbjprf6gx7-1">
          <mxGeometry x="720" y="190" width="120" height="60" as="geometry" />
        </mxCell>
        <mxCell id="-PEEaS-bJTtw68YUoyjQ-31" value="" style="endArrow=none;html=1;rounded=0;shape=link;strokeColor=#B5B5B5;" edge="1" parent="OF-NH1eZ6VVbjprf6gx7-1">
          <mxGeometry width="50" height="50" relative="1" as="geometry">
            <mxPoint x="520" y="360" as="sourcePoint" />
            <mxPoint x="520" as="targetPoint" />
          </mxGeometry>
        </mxCell>
        <mxCell id="-PEEaS-bJTtw68YUoyjQ-33" style="edgeStyle=orthogonalEdgeStyle;rounded=0;orthogonalLoop=1;jettySize=auto;html=1;exitX=0;exitY=0.5;exitDx=0;exitDy=0;entryX=1;entryY=0.5;entryDx=0;entryDy=0;endArrow=block;endFill=0;" edge="1" parent="OF-NH1eZ6VVbjprf6gx7-1" source="-PEEaS-bJTtw68YUoyjQ-32" target="-PEEaS-bJTtw68YUoyjQ-29">
          <mxGeometry relative="1" as="geometry" />
        </mxCell>
        <mxCell id="-PEEaS-bJTtw68YUoyjQ-35" style="edgeStyle=orthogonalEdgeStyle;rounded=0;orthogonalLoop=1;jettySize=auto;html=1;exitX=1;exitY=0.5;exitDx=0;exitDy=0;endArrow=classic;endFill=1;" edge="1" parent="OF-NH1eZ6VVbjprf6gx7-1" source="-PEEaS-bJTtw68YUoyjQ-32" target="-PEEaS-bJTtw68YUoyjQ-34">
          <mxGeometry relative="1" as="geometry" />
        </mxCell>
        <mxCell id="-PEEaS-bJTtw68YUoyjQ-32" value="印度のJA&lt;br&gt;(Data Access)" style="rounded=0;whiteSpace=wrap;html=1;" vertex="1" parent="OF-NH1eZ6VVbjprf6gx7-1">
          <mxGeometry x="930" y="190" width="120" height="60" as="geometry" />
        </mxCell>
        <mxCell id="-PEEaS-bJTtw68YUoyjQ-34" value="印度のスパイス農家&lt;br&gt;(Database)" style="rounded=0;whiteSpace=wrap;html=1;" vertex="1" parent="OF-NH1eZ6VVbjprf6gx7-1">
          <mxGeometry x="1130" y="190" width="120" height="60" as="geometry" />
        </mxCell>
        <mxCell id="-PEEaS-bJTtw68YUoyjQ-37" value="" style="endArrow=none;html=1;rounded=0;shape=link;strokeColor=#8A8A8A;" edge="1" parent="OF-NH1eZ6VVbjprf6gx7-1">
          <mxGeometry width="50" height="50" relative="1" as="geometry">
            <mxPoint x="860" y="400" as="sourcePoint" />
            <mxPoint x="860" as="targetPoint" />
          </mxGeometry>
        </mxCell>
        <mxCell id="-PEEaS-bJTtw68YUoyjQ-38" value="" style="endArrow=none;html=1;rounded=0;shape=link;strokeColor=#B5B5B5;" edge="1" parent="OF-NH1eZ6VVbjprf6gx7-1">
          <mxGeometry width="50" height="50" relative="1" as="geometry">
            <mxPoint x="-560" y="-1" as="sourcePoint" />
            <mxPoint x="1280" y="-1" as="targetPoint" />
          </mxGeometry>
        </mxCell>
        <mxCell id="-PEEaS-bJTtw68YUoyjQ-42" value="" style="endArrow=none;html=1;rounded=0;shape=link;strokeColor=#8A8A8A;" edge="1" parent="OF-NH1eZ6VVbjprf6gx7-1">
          <mxGeometry width="50" height="50" relative="1" as="geometry">
            <mxPoint x="-560" as="sourcePoint" />
            <mxPoint x="-560" y="440" as="targetPoint" />
          </mxGeometry>
        </mxCell>
        <mxCell id="-PEEaS-bJTtw68YUoyjQ-43" value="" style="endArrow=none;html=1;rounded=0;shape=link;strokeColor=#8A8A8A;" edge="1" parent="OF-NH1eZ6VVbjprf6gx7-1">
          <mxGeometry width="50" height="50" relative="1" as="geometry">
            <mxPoint x="1280" y="440" as="sourcePoint" />
            <mxPoint x="-560" y="440" as="targetPoint" />
          </mxGeometry>
        </mxCell>
        <mxCell id="-PEEaS-bJTtw68YUoyjQ-44" value="" style="endArrow=none;html=1;rounded=0;shape=link;strokeColor=#8A8A8A;" edge="1" parent="OF-NH1eZ6VVbjprf6gx7-1">
          <mxGeometry width="50" height="50" relative="1" as="geometry">
            <mxPoint x="1280" y="440" as="sourcePoint" />
            <mxPoint x="1280" as="targetPoint" />
          </mxGeometry>
        </mxCell>
      </root>
    </mxGraphModel>
  </diagram>
</mxfile>
